# xmcd
#
# Track frame offsets:
#	150
#	17285
#	29777
#	45175
#	62342
#	75702
#	89516
#	105507
#	119583
#	139310
#	152484
#	174218
#	192335
#	208337
#	223446
#	237999
#	254350
#	270719
#	287457
#	319337
#	332234
#	346231
#
# Disc length: 4796 seconds
#
# Revision: 0
# Processed by: cddbd v1.5.2PL0 Copyright (c) Steve Scherf et al.
# Submitted via: EasyCDDAExtractor 2010.6.0.0
#
DISCID=4412ba16
DTITLE=Various Artist - Grand Prix Clubhits Cd 2
DYEAR=2012
DGENRE=Pop
TTITLE0=Antique - Die For You (Die For Disco Radio Mix)
TTITLE1=Sertab Erener - Everywhere That I Can (Galleon Radio Edit)
TTITLE2=Elena - The Balkan Girls (DJ Daronee Remix)
TTITLE3=Hera Bjork - Je Ne Sais Quoi (Clubmix)
TTITLE4=Alexander Rybak - Fairytale (DJ Lello Remix)
TTITLE5=Carola - Främling (Remix)
TTITLE6=Johnny Logan - Hold Me Now (Dance Remix 2001)
TTITLE7=Ira Losco - 7th Wonder (Club Mix)
TTITLE8=Anna Vissi - Everything (Valentino and Christodoulos Siganos Remix)
TTITLE9=Didrik Solli-Tangen - My Heart Is Yours (7h Radio Mix)
TTITLE10=Ines - Once In A Lifetime (Paradise 9 Remix)
TTITLE11=Lars A Fredriksen - All I Ever Wanted (Was You) (Remix)
TTITLE12=Andrea Demirovic - Just Get Out Of My Life (Finger and Kadel Radio Mix)
TTITLE13=Gina G - Ooh Aah... Just A Little Bit (Motiv8 Radio Edit)
TTITLE14=Corinna May - I Can't Live Without Music (Energy Mix)
TTITLE15=Maria Haukaas Storeng - Hold On Be Strong (Deepfrost Cafe Radio Mix)
TTITLE16=Michael Von Der Heide - Il Pleut De L'or (Full Of Grace House Mix)
TTITLE17=Getter Jaani - Rockefeller Street (Rockefeller Street Remix)
TTITLE18=Katrina and The Waves - Love Shine A Light (Xenomania Club Mix)
TTITLE19=Olsen Brothers - Waterloo
TTITLE20=Olsen Brothers - Fly On The Wings Of Love (2010 Version)
TTITLE21=Olsen Brothers Feat. Nicole - Ein Bisschen Frieden
EXTD=
EXTT0=
EXTT1=
EXTT2=
EXTT3=
EXTT4=
EXTT5=
EXTT6=
EXTT7=
EXTT8=
EXTT9=
EXTT10=
EXTT11=
EXTT12=
EXTT13=
EXTT14=
EXTT15=
EXTT16=
EXTT17=
EXTT18=
EXTT19=
EXTT20=
EXTT21=
PLAYORDER=
